<?xml version="1.0" encoding="UTF-8" standalone="no"?>
<!DOCTYPE svg PUBLIC "-//W3C//DTD SVG 1.1//EN"
 "http://www.w3.org/Graphics/SVG/1.1/DTD/svg11.dtd">
<!-- Generated by graphviz version 2.36.0 (20140111.2315)
 -->
<!-- Title: IKnobControlBase Pages: 1 -->
<svg width="506pt" height="408pt"
 viewBox="0.00 0.00 506.00 408.00" xmlns="http://www.w3.org/2000/svg" xmlns:xlink="http://www.w3.org/1999/xlink">
<g id="graph0" class="graph" transform="scale(1 1) rotate(0) translate(4 404)">
<title>IKnobControlBase</title>
<polygon fill="white" stroke="none" points="-4,4 -4,-404 502,-404 502,4 -4,4"/>
<!-- Node1 -->
<g id="node1" class="node"><title>Node1</title>
<polygon fill="#bfbfbf" stroke="black" points="88,-190.5 88,-209.5 184,-209.5 184,-190.5 88,-190.5"/>
<text text-anchor="middle" x="136" y="-197.5" font-family="Helvetica,sans-Serif" font-size="10.00">IKnobControlBase</text>
</g>
<!-- Node3 -->
<g id="node3" class="node"><title>Node3</title>
<g id="a_node3"><a xlink:href="class_i_b_knob_control.html" target="_top" xlink:title="A bitmap knob/dial control that draws a frame from a stacked bitmap. ">
<polygon fill="white" stroke="black" points="244,-380.5 244,-399.5 324,-399.5 324,-380.5 244,-380.5"/>
<text text-anchor="middle" x="284" y="-387.5" font-family="Helvetica,sans-Serif" font-size="10.00">IBKnobControl</text>
</a>
</g>
</g>
<!-- Node1&#45;&gt;Node3 -->
<g id="edge2" class="edge"><title>Node1&#45;&gt;Node3</title>
<path fill="none" stroke="midnightblue" d="M141.138,-219.905C149.583,-255.523 172.185,-330.24 220,-371 226.781,-376.781 235.279,-380.803 243.817,-383.601"/>
<polygon fill="midnightblue" stroke="midnightblue" points="144.478,-218.802 138.88,-209.806 137.647,-220.329 144.478,-218.802"/>
</g>
<!-- Node5 -->
<g id="node5" class="node"><title>Node5</title>
<g id="a_node5"><a xlink:href="class_i_s_v_g_knob.html" target="_top" xlink:title="A vector knob/dial control which rotates an SVG image. ">
<polygon fill="white" stroke="black" points="252.5,-342.5 252.5,-361.5 315.5,-361.5 315.5,-342.5 252.5,-342.5"/>
<text text-anchor="middle" x="284" y="-349.5" font-family="Helvetica,sans-Serif" font-size="10.00">ISVGKnob</text>
</a>
</g>
</g>
<!-- Node1&#45;&gt;Node5 -->
<g id="edge4" class="edge"><title>Node1&#45;&gt;Node5</title>
<path fill="none" stroke="midnightblue" d="M143.825,-219.096C155.14,-248.034 180.527,-302.812 220,-333 229.347,-340.148 241.371,-344.62 252.405,-347.412"/>
<polygon fill="midnightblue" stroke="midnightblue" points="147.087,-217.826 140.293,-209.697 140.534,-220.289 147.087,-217.826"/>
</g>
<!-- Node6 -->
<g id="node6" class="node"><title>Node6</title>
<g id="a_node6"><a xlink:href="class_i_v_knob_control.html" target="_top" xlink:title="A vector knob control drawn using graphics primitves. ">
<polygon fill="white" stroke="black" points="244,-304.5 244,-323.5 324,-323.5 324,-304.5 244,-304.5"/>
<text text-anchor="middle" x="284" y="-311.5" font-family="Helvetica,sans-Serif" font-size="10.00">IVKnobControl</text>
</a>
</g>
</g>
<!-- Node1&#45;&gt;Node6 -->
<g id="edge5" class="edge"><title>Node1&#45;&gt;Node6</title>
<path fill="none" stroke="midnightblue" d="M148.248,-218.18C162.419,-239.606 188.736,-274.837 220,-295 227.2,-299.644 235.589,-303.198 243.852,-305.901"/>
<polygon fill="midnightblue" stroke="midnightblue" points="151.129,-216.189 142.779,-209.668 145.24,-219.973 151.129,-216.189"/>
</g>
<!-- Node7 -->
<g id="node7" class="node"><title>Node7</title>
<g id="a_node7"><a xlink:href="class_test_arc_control.html" target="_top" xlink:title="Control to test drawing arcs. ">
<polygon fill="white" stroke="black" points="242.5,-266.5 242.5,-285.5 325.5,-285.5 325.5,-266.5 242.5,-266.5"/>
<text text-anchor="middle" x="284" y="-273.5" font-family="Helvetica,sans-Serif" font-size="10.00">TestArcControl</text>
</a>
</g>
</g>
<!-- Node1&#45;&gt;Node7 -->
<g id="edge6" class="edge"><title>Node1&#45;&gt;Node7</title>
<path fill="none" stroke="midnightblue" d="M156.511,-215.987C172.69,-228.587 196.729,-245.835 220,-257 227.725,-260.706 236.331,-263.872 244.639,-266.495"/>
<polygon fill="midnightblue" stroke="midnightblue" points="158.394,-213.013 148.386,-209.534 154.04,-218.494 158.394,-213.013"/>
</g>
<!-- Node8 -->
<g id="node8" class="node"><title>Node8</title>
<g id="a_node8"><a xlink:href="class_test_blend_control.html" target="_top" xlink:title="Control to test blend methods. ">
<polygon fill="white" stroke="black" points="238,-228.5 238,-247.5 330,-247.5 330,-228.5 238,-228.5"/>
<text text-anchor="middle" x="284" y="-235.5" font-family="Helvetica,sans-Serif" font-size="10.00">TestBlendControl</text>
</a>
</g>
</g>
<!-- Node1&#45;&gt;Node8 -->
<g id="edge7" class="edge"><title>Node1&#45;&gt;Node8</title>
<path fill="none" stroke="midnightblue" d="M183.536,-212.112C203.87,-217.404 227.371,-223.521 246.423,-228.48"/>
<polygon fill="midnightblue" stroke="midnightblue" points="184.401,-208.721 173.842,-209.589 182.638,-215.495 184.401,-208.721"/>
</g>
<!-- Node9 -->
<g id="node9" class="node"><title>Node9</title>
<g id="a_node9"><a xlink:href="class_test_gradient_control.html" target="_top" xlink:title="Control to test drawing gradients with path based drawing backends. ">
<polygon fill="white" stroke="black" points="232,-190.5 232,-209.5 336,-209.5 336,-190.5 232,-190.5"/>
<text text-anchor="middle" x="284" y="-197.5" font-family="Helvetica,sans-Serif" font-size="10.00">TestGradientControl</text>
</a>
</g>
</g>
<!-- Node1&#45;&gt;Node9 -->
<g id="edge8" class="edge"><title>Node1&#45;&gt;Node9</title>
<path fill="none" stroke="midnightblue" d="M194.556,-200C206.855,-200 219.766,-200 231.806,-200"/>
<polygon fill="midnightblue" stroke="midnightblue" points="194.402,-196.5 184.402,-200 194.402,-203.5 194.402,-196.5"/>
</g>
<!-- Node10 -->
<g id="node10" class="node"><title>Node10</title>
<g id="a_node10"><a xlink:href="class_test_layer_control.html" target="_top" xlink:title="Control to test IGraphics layers. ">
<polygon fill="white" stroke="black" points="238,-152.5 238,-171.5 330,-171.5 330,-152.5 238,-152.5"/>
<text text-anchor="middle" x="284" y="-159.5" font-family="Helvetica,sans-Serif" font-size="10.00">TestLayerControl</text>
</a>
</g>
</g>
<!-- Node1&#45;&gt;Node10 -->
<g id="edge9" class="edge"><title>Node1&#45;&gt;Node10</title>
<path fill="none" stroke="midnightblue" d="M183.536,-187.888C203.87,-182.596 227.371,-176.479 246.423,-171.52"/>
<polygon fill="midnightblue" stroke="midnightblue" points="182.638,-184.505 173.842,-190.411 184.401,-191.279 182.638,-184.505"/>
</g>
<!-- Node11 -->
<g id="node11" class="node"><title>Node11</title>
<g id="a_node11"><a xlink:href="class_test_m_p_s_control.html" target="_top" xlink:title="Control to test IGraphicsNanoVG with Metal Performance Shaders. ">
<polygon fill="white" stroke="black" points="239.5,-114.5 239.5,-133.5 328.5,-133.5 328.5,-114.5 239.5,-114.5"/>
<text text-anchor="middle" x="284" y="-121.5" font-family="Helvetica,sans-Serif" font-size="10.00">TestMPSControl</text>
</a>
</g>
</g>
<!-- Node1&#45;&gt;Node11 -->
<g id="edge10" class="edge"><title>Node1&#45;&gt;Node11</title>
<path fill="none" stroke="midnightblue" d="M156.511,-184.013C172.69,-171.413 196.729,-154.165 220,-143 227.725,-139.294 236.331,-136.128 244.639,-133.505"/>
<polygon fill="midnightblue" stroke="midnightblue" points="154.04,-181.506 148.386,-190.466 158.394,-186.987 154.04,-181.506"/>
</g>
<!-- Node12 -->
<g id="node12" class="node"><title>Node12</title>
<g id="a_node12"><a xlink:href="class_test_multi_path_control.html" target="_top" xlink:title="Control to test drawing paths in path&#45;based drawing backends. ">
<polygon fill="white" stroke="black" points="229.5,-76.5 229.5,-95.5 338.5,-95.5 338.5,-76.5 229.5,-76.5"/>
<text text-anchor="middle" x="284" y="-83.5" font-family="Helvetica,sans-Serif" font-size="10.00">TestMultiPathControl</text>
</a>
</g>
</g>
<!-- Node1&#45;&gt;Node12 -->
<g id="edge11" class="edge"><title>Node1&#45;&gt;Node12</title>
<path fill="none" stroke="midnightblue" d="M148.248,-181.82C162.419,-160.394 188.736,-125.163 220,-105 225.952,-101.161 232.717,-98.0672 239.551,-95.5826"/>
<polygon fill="midnightblue" stroke="midnightblue" points="145.24,-180.027 142.779,-190.332 151.129,-183.811 145.24,-180.027"/>
</g>
<!-- Node13 -->
<g id="node13" class="node"><title>Node13</title>
<g id="a_node13"><a xlink:href="class_test_poly_control.html" target="_top" xlink:title="Control to test drawing polygons. ">
<polygon fill="white" stroke="black" points="240.5,-38.5 240.5,-57.5 327.5,-57.5 327.5,-38.5 240.5,-38.5"/>
<text text-anchor="middle" x="284" y="-45.5" font-family="Helvetica,sans-Serif" font-size="10.00">TestPolyControl</text>
</a>
</g>
</g>
<!-- Node1&#45;&gt;Node13 -->
<g id="edge12" class="edge"><title>Node1&#45;&gt;Node13</title>
<path fill="none" stroke="midnightblue" d="M143.825,-180.904C155.14,-151.966 180.527,-97.1881 220,-67 225.989,-62.4196 233.078,-58.9381 240.3,-56.2933"/>
<polygon fill="midnightblue" stroke="midnightblue" points="140.534,-179.711 140.293,-190.303 147.087,-182.174 140.534,-179.711"/>
</g>
<!-- Node14 -->
<g id="node14" class="node"><title>Node14</title>
<g id="a_node14"><a xlink:href="class_test_rotating_mask_control.html" target="_top" xlink:title="Control to test rotating mask bitmaps. ">
<polygon fill="white" stroke="black" points="220,-0.5 220,-19.5 348,-19.5 348,-0.5 220,-0.5"/>
<text text-anchor="middle" x="284" y="-7.5" font-family="Helvetica,sans-Serif" font-size="10.00">TestRotatingMaskControl</text>
</a>
</g>
</g>
<!-- Node1&#45;&gt;Node14 -->
<g id="edge13" class="edge"><title>Node1&#45;&gt;Node14</title>
<path fill="none" stroke="midnightblue" d="M141.138,-180.095C149.583,-144.477 172.185,-69.7595 220,-29 224.521,-25.1462 229.804,-22.0741 235.354,-19.6251"/>
<polygon fill="midnightblue" stroke="midnightblue" points="137.647,-179.671 138.88,-190.194 144.478,-181.198 137.647,-179.671"/>
</g>
<!-- Node2 -->
<g id="node2" class="node"><title>Node2</title>
<g id="a_node2"><a xlink:href="class_i_control.html" target="_top" xlink:title="The lowest level base class of an IGraphics control. ">
<polygon fill="white" stroke="black" points="0.5,-190.5 0.5,-209.5 51.5,-209.5 51.5,-190.5 0.5,-190.5"/>
<text text-anchor="middle" x="26" y="-197.5" font-family="Helvetica,sans-Serif" font-size="10.00">IControl</text>
</a>
</g>
</g>
<!-- Node2&#45;&gt;Node1 -->
<g id="edge1" class="edge"><title>Node2&#45;&gt;Node1</title>
<path fill="none" stroke="midnightblue" d="M61.5595,-200C69.8495,-200 78.845,-200 87.6051,-200"/>
<polygon fill="midnightblue" stroke="midnightblue" points="61.5069,-196.5 51.5069,-200 61.5068,-203.5 61.5069,-196.5"/>
</g>
<!-- Node4 -->
<g id="node4" class="node"><title>Node4</title>
<g id="a_node4"><a xlink:href="class_i_b_knob_rotater_control.html" target="_top" xlink:title="A bitmap knob/dial control that rotates an image. ">
<polygon fill="white" stroke="black" points="384.5,-380.5 384.5,-399.5 497.5,-399.5 497.5,-380.5 384.5,-380.5"/>
<text text-anchor="middle" x="441" y="-387.5" font-family="Helvetica,sans-Serif" font-size="10.00">IBKnobRotaterControl</text>
</a>
</g>
</g>
<!-- Node3&#45;&gt;Node4 -->
<g id="edge3" class="edge"><title>Node3&#45;&gt;Node4</title>
<path fill="none" stroke="midnightblue" d="M334.259,-390C350.153,-390 367.882,-390 384.213,-390"/>
<polygon fill="midnightblue" stroke="midnightblue" points="334.113,-386.5 324.113,-390 334.113,-393.5 334.113,-386.5"/>
</g>
</g>
</svg>
