<?xml version="1.0" encoding="UTF-8" standalone="no"?>
<!DOCTYPE svg PUBLIC "-//W3C//DTD SVG 1.1//EN"
 "http://www.w3.org/Graphics/SVG/1.1/DTD/svg11.dtd">
<!-- Generated by graphviz version 2.36.0 (20140111.2315)
 -->
<!-- Title: IControl Pages: 1 -->
<svg width="400pt" height="1237pt"
 viewBox="0.00 0.00 400.00 1237.00" xmlns="http://www.w3.org/2000/svg" xmlns:xlink="http://www.w3.org/1999/xlink">
<g id="graph0" class="graph" transform="scale(1 1) rotate(0) translate(4 1233)">
<title>IControl</title>
<polygon fill="white" stroke="none" points="-4,4 -4,-1233 396,-1233 396,4 -4,4"/>
<!-- Node1 -->
<g id="node1" class="node"><title>Node1</title>
<polygon fill="#bfbfbf" stroke="black" points="0.5,-582.5 0.5,-601.5 51.5,-601.5 51.5,-582.5 0.5,-582.5"/>
<text text-anchor="middle" x="26" y="-589.5" font-family="Helvetica,sans-Serif" font-size="10.00">IControl</text>
</g>
<!-- Node2 -->
<g id="node2" class="node"><title>Node2</title>
<g id="a_node2"><a xlink:href="class_i_bitmap_control.html" target="_top" xlink:title="A basic control to draw a bitmap, or one frame of a stacked bitmap depending on the current value...">
<polygon fill="white" stroke="black" points="117,-1190.5 117,-1209.5 199,-1209.5 199,-1190.5 117,-1190.5"/>
<text text-anchor="middle" x="158" y="-1197.5" font-family="Helvetica,sans-Serif" font-size="10.00">IBitmapControl</text>
</a>
</g>
</g>
<!-- Node1&#45;&gt;Node2 -->
<g id="edge1" class="edge"><title>Node1&#45;&gt;Node2</title>
<path fill="none" stroke="midnightblue" d="M26.7292,-611.932C25.8619,-701.823 26.2144,-1069.12 88,-1162 96.9379,-1175.44 112.296,-1184.56 126.257,-1190.49"/>
<polygon fill="midnightblue" stroke="midnightblue" points="30.2308,-611.797 26.8452,-601.757 23.2313,-611.717 30.2308,-611.797"/>
</g>
<!-- Node4 -->
<g id="node4" class="node"><title>Node4</title>
<g id="a_node4"><a xlink:href="class_i_button_control_base.html" target="_top" xlink:title="A base class for buttons/momentary switches &#45; cannot be linked to parameters. ">
<polygon fill="white" stroke="black" points="107,-1133.5 107,-1152.5 209,-1152.5 209,-1133.5 107,-1133.5"/>
<text text-anchor="middle" x="158" y="-1140.5" font-family="Helvetica,sans-Serif" font-size="10.00">IButtonControlBase</text>
</a>
</g>
</g>
<!-- Node1&#45;&gt;Node4 -->
<g id="edge3" class="edge"><title>Node1&#45;&gt;Node4</title>
<path fill="none" stroke="midnightblue" d="M26.9961,-611.766C27.3275,-695.722 32.2398,-1022.24 88,-1105 97.0167,-1118.38 112.381,-1127.5 126.326,-1133.45"/>
<polygon fill="midnightblue" stroke="midnightblue" points="30.4958,-611.573 26.9749,-601.58 23.4958,-611.587 30.4958,-611.573"/>
</g>
<!-- Node7 -->
<g id="node7" class="node"><title>Node7</title>
<g id="a_node7"><a xlink:href="class_i_color_picker_control.html" target="_top" xlink:title="A control for choosing a color. ">
<polygon fill="white" stroke="black" points="107,-1076.5 107,-1095.5 209,-1095.5 209,-1076.5 107,-1076.5"/>
<text text-anchor="middle" x="158" y="-1083.5" font-family="Helvetica,sans-Serif" font-size="10.00">IColorPickerControl</text>
</a>
</g>
</g>
<!-- Node1&#45;&gt;Node7 -->
<g id="edge6" class="edge"><title>Node1&#45;&gt;Node7</title>
<path fill="none" stroke="midnightblue" d="M26.7327,-612.179C26.0693,-693.69 27.7392,-997.583 88,-1067 93.05,-1072.82 99.7011,-1076.93 106.882,-1079.83"/>
<polygon fill="midnightblue" stroke="midnightblue" points="30.2362,-611.857 26.8408,-601.821 23.2365,-611.784 30.2362,-611.857"/>
</g>
<!-- Node8 -->
<g id="node8" class="node"><title>Node8</title>
<g id="a_node8"><a xlink:href="class_i_corner_resizer_control.html" target="_top" xlink:title="A control for resizing the plug&#45;in window by clicking and dragging in the bottom right&#45;hand corner Th...">
<polygon fill="white" stroke="black" points="101,-1038.5 101,-1057.5 215,-1057.5 215,-1038.5 101,-1038.5"/>
<text text-anchor="middle" x="158" y="-1045.5" font-family="Helvetica,sans-Serif" font-size="10.00">ICornerResizerControl</text>
</a>
</g>
</g>
<!-- Node1&#45;&gt;Node8 -->
<g id="edge7" class="edge"><title>Node1&#45;&gt;Node8</title>
<path fill="none" stroke="midnightblue" d="M26.9831,-612.031C27.3291,-689.157 32.4833,-965.752 88,-1029 91.6065,-1033.11 96.0116,-1036.37 100.834,-1038.94"/>
<polygon fill="midnightblue" stroke="midnightblue" points="30.4827,-611.779 26.9617,-601.786 23.4827,-611.794 30.4827,-611.779"/>
</g>
<!-- Node9 -->
<g id="node9" class="node"><title>Node9</title>
<g id="a_node9"><a xlink:href="class_i_dir_browse_control_base.html" target="_top" xlink:title="An abstract IControl base class that you can inherit from in order to make a control that pops up a m...">
<polygon fill="white" stroke="black" points="98.5,-1000.5 98.5,-1019.5 217.5,-1019.5 217.5,-1000.5 98.5,-1000.5"/>
<text text-anchor="middle" x="158" y="-1007.5" font-family="Helvetica,sans-Serif" font-size="10.00">IDirBrowseControlBase</text>
</a>
</g>
</g>
<!-- Node1&#45;&gt;Node9 -->
<g id="edge8" class="edge"><title>Node1&#45;&gt;Node9</title>
<path fill="none" stroke="midnightblue" d="M27.2716,-611.672C28.6708,-683.985 37.1649,-933.84 88,-991 91.3854,-994.807 95.4563,-997.881 99.9063,-1000.36"/>
<polygon fill="midnightblue" stroke="midnightblue" points="30.7708,-611.587 27.1026,-601.648 23.7718,-611.705 30.7708,-611.587"/>
</g>
<!-- Node11 -->
<g id="node11" class="node"><title>Node11</title>
<g id="a_node11"><a xlink:href="class_i_f_p_s_display_control.html" target="_top" xlink:title="Performance display meter, based on code from NanoVG This is a special control that lives outside the...">
<polygon fill="white" stroke="black" points="106,-962.5 106,-981.5 210,-981.5 210,-962.5 106,-962.5"/>
<text text-anchor="middle" x="158" y="-969.5" font-family="Helvetica,sans-Serif" font-size="10.00">IFPSDisplayControl</text>
</a>
</g>
</g>
<!-- Node1&#45;&gt;Node11 -->
<g id="edge10" class="edge"><title>Node1&#45;&gt;Node11</title>
<path fill="none" stroke="midnightblue" d="M27.6316,-611.952C30.1913,-680.073 41.9784,-902.063 88,-953 92.8312,-958.347 99.0151,-962.247 105.691,-965.08"/>
<polygon fill="midnightblue" stroke="midnightblue" points="31.1218,-611.609 27.2751,-601.737 24.1261,-611.853 31.1218,-611.609"/>
</g>
<!-- Node12 -->
<g id="node12" class="node"><title>Node12</title>
<g id="a_node12"><a xlink:href="class_i_graphics_live_edit.html" target="_top" xlink:title="A control to enable live modification of control layout in an IGraphics context in debug builds This ...">
<polygon fill="white" stroke="black" points="111,-924.5 111,-943.5 205,-943.5 205,-924.5 111,-924.5"/>
<text text-anchor="middle" x="158" y="-931.5" font-family="Helvetica,sans-Serif" font-size="10.00">IGraphicsLiveEdit</text>
</a>
</g>
</g>
<!-- Node1&#45;&gt;Node12 -->
<g id="edge11" class="edge"><title>Node1&#45;&gt;Node12</title>
<path fill="none" stroke="midnightblue" d="M28.0622,-611.869C31.8408,-675.103 46.6877,-870.151 88,-915 94.061,-921.58 102.171,-925.962 110.697,-928.861"/>
<polygon fill="midnightblue" stroke="midnightblue" points="31.5439,-611.447 27.4816,-601.662 24.5552,-611.844 31.5439,-611.447"/>
</g>
<!-- Node13 -->
<g id="node13" class="node"><title>Node13</title>
<g id="a_node13"><a xlink:href="class_i_knob_control_base.html" target="_top" xlink:title="A base class for knob/dial controls, to handle mouse action and ballistics. ">
<polygon fill="white" stroke="black" points="110,-886.5 110,-905.5 206,-905.5 206,-886.5 110,-886.5"/>
<text text-anchor="middle" x="158" y="-893.5" font-family="Helvetica,sans-Serif" font-size="10.00">IKnobControlBase</text>
</a>
</g>
</g>
<!-- Node1&#45;&gt;Node13 -->
<g id="edge12" class="edge"><title>Node1&#45;&gt;Node13</title>
<path fill="none" stroke="midnightblue" d="M28.6,-611.776C33.6897,-669.84 51.371,-838.188 88,-877 93.8844,-883.235 101.609,-887.489 109.755,-890.378"/>
<polygon fill="midnightblue" stroke="midnightblue" points="32.0786,-611.373 27.748,-601.704 25.1035,-611.964 32.0786,-611.373"/>
</g>
<!-- Node25 -->
<g id="node25" class="node"><title>Node25</title>
<g id="a_node25"><a xlink:href="class_i_lambda_control.html" target="_top" xlink:title="A control that can be specialised with a lambda function, for quick experiments without making a cust...">
<polygon fill="white" stroke="black" points="115,-848.5 115,-867.5 201,-867.5 201,-848.5 115,-848.5"/>
<text text-anchor="middle" x="158" y="-855.5" font-family="Helvetica,sans-Serif" font-size="10.00">ILambdaControl</text>
</a>
</g>
</g>
<!-- Node1&#45;&gt;Node25 -->
<g id="edge24" class="edge"><title>Node1&#45;&gt;Node25</title>
<path fill="none" stroke="midnightblue" d="M29.316,-611.862C35.8508,-664.571 56.0616,-806.201 88,-839 95.1947,-846.389 104.977,-850.983 114.913,-853.819"/>
<polygon fill="midnightblue" stroke="midnightblue" points="32.7716,-611.282 28.0992,-601.773 25.822,-612.121 32.7716,-611.282"/>
</g>
<!-- Node26 -->
<g id="node26" class="node"><title>Node26</title>
<g id="a_node26"><a xlink:href="class_i_panel_control.html" target="_top" xlink:title="A basic control to fill a rectangle with a color or gradient. ">
<polygon fill="white" stroke="black" points="120,-810.5 120,-829.5 196,-829.5 196,-810.5 120,-810.5"/>
<text text-anchor="middle" x="158" y="-817.5" font-family="Helvetica,sans-Serif" font-size="10.00">IPanelControl</text>
</a>
</g>
</g>
<!-- Node1&#45;&gt;Node26 -->
<g id="edge25" class="edge"><title>Node1&#45;&gt;Node26</title>
<path fill="none" stroke="midnightblue" d="M26.7685,-611.587C27.3893,-652.726 34.8281,-748.634 88,-801 96.4986,-809.37 108.326,-814.134 119.791,-816.82"/>
<polygon fill="midnightblue" stroke="midnightblue" points="30.2684,-611.508 26.7418,-601.517 23.2684,-611.526 30.2684,-611.508"/>
</g>
<!-- Node27 -->
<g id="node27" class="node"><title>Node27</title>
<g id="a_node27"><a xlink:href="class_i_popup_menu_control.html" target="_top" xlink:title="A base control for a pop&#45;up menu/drop&#45;down list that stays within the bounds of the IGraphics context...">
<polygon fill="white" stroke="black" points="106.5,-772.5 106.5,-791.5 209.5,-791.5 209.5,-772.5 106.5,-772.5"/>
<text text-anchor="middle" x="158" y="-779.5" font-family="Helvetica,sans-Serif" font-size="10.00">IPopupMenuControl</text>
</a>
</g>
</g>
<!-- Node1&#45;&gt;Node27 -->
<g id="edge26" class="edge"><title>Node1&#45;&gt;Node27</title>
<path fill="none" stroke="midnightblue" d="M28.3011,-611.889C31.7201,-647.484 44.0254,-722.163 88,-763 93.2807,-767.904 99.7103,-771.561 106.497,-774.285"/>
<polygon fill="midnightblue" stroke="midnightblue" points="31.7793,-611.479 27.4744,-601.798 24.8027,-612.051 31.7793,-611.479"/>
</g>
<!-- Node28 -->
<g id="node28" class="node"><title>Node28</title>
<g id="a_node28"><a xlink:href="class_i_slider_control_base.html" target="_top" xlink:title="A base class for slider/fader controls, to handle mouse action and ballistics. ">
<polygon fill="white" stroke="black" points="109,-734.5 109,-753.5 207,-753.5 207,-734.5 109,-734.5"/>
<text text-anchor="middle" x="158" y="-741.5" font-family="Helvetica,sans-Serif" font-size="10.00">ISliderControlBase</text>
</a>
</g>
</g>
<!-- Node1&#45;&gt;Node28 -->
<g id="edge27" class="edge"><title>Node1&#45;&gt;Node28</title>
<path fill="none" stroke="midnightblue" d="M30.6227,-611.899C36.9874,-641.075 52.9782,-695.217 88,-725 93.963,-730.071 101.17,-733.797 108.647,-736.533"/>
<polygon fill="midnightblue" stroke="midnightblue" points="33.9777,-610.829 28.575,-601.716 27.1151,-612.209 33.9777,-610.829"/>
</g>
<!-- Node31 -->
<g id="node31" class="node"><title>Node31</title>
<g id="a_node31"><a xlink:href="class_i_s_v_g_control.html" target="_top" xlink:title="A basic control to draw an SVG image to the screen. ">
<polygon fill="white" stroke="black" points="122,-696.5 122,-715.5 194,-715.5 194,-696.5 122,-696.5"/>
<text text-anchor="middle" x="158" y="-703.5" font-family="Helvetica,sans-Serif" font-size="10.00">ISVGControl</text>
</a>
</g>
</g>
<!-- Node1&#45;&gt;Node31 -->
<g id="edge30" class="edge"><title>Node1&#45;&gt;Node31</title>
<path fill="none" stroke="midnightblue" d="M34.3361,-611.204C43.5855,-632.845 61.5439,-667.534 88,-687 97.8077,-694.216 110.218,-698.692 121.801,-701.468"/>
<polygon fill="midnightblue" stroke="midnightblue" points="37.5028,-609.7 30.496,-601.753 31.0176,-612.335 37.5028,-609.7"/>
</g>
<!-- Node32 -->
<g id="node32" class="node"><title>Node32</title>
<g id="a_node32"><a xlink:href="class_i_switch_control_base.html" target="_top" xlink:title="A base class for switch controls. ">
<polygon fill="white" stroke="red" points="106,-658.5 106,-677.5 210,-677.5 210,-658.5 106,-658.5"/>
<text text-anchor="middle" x="158" y="-665.5" font-family="Helvetica,sans-Serif" font-size="10.00">ISwitchControlBase</text>
</a>
</g>
</g>
<!-- Node1&#45;&gt;Node32 -->
<g id="edge31" class="edge"><title>Node1&#45;&gt;Node32</title>
<path fill="none" stroke="midnightblue" d="M41.2629,-609.233C52.6729,-621.96 69.7381,-638.782 88,-649 94.8312,-652.822 102.479,-655.914 110.128,-658.403"/>
<polygon fill="midnightblue" stroke="midnightblue" points="43.8188,-606.838 34.6258,-601.571 38.5279,-611.421 43.8188,-606.838"/>
</g>
<!-- Node33 -->
<g id="node33" class="node"><title>Node33</title>
<g id="a_node33"><a xlink:href="class_i_text_control.html" target="_top" xlink:title="A basic control to display some text. ">
<polygon fill="white" stroke="red" points="122.5,-620.5 122.5,-639.5 193.5,-639.5 193.5,-620.5 122.5,-620.5"/>
<text text-anchor="middle" x="158" y="-627.5" font-family="Helvetica,sans-Serif" font-size="10.00">ITextControl</text>
</a>
</g>
</g>
<!-- Node1&#45;&gt;Node33 -->
<g id="edge32" class="edge"><title>Node1&#45;&gt;Node33</title>
<path fill="none" stroke="midnightblue" d="M61.3875,-602.93C70.056,-605.625 79.3554,-608.464 88,-611 99.0881,-614.252 111.226,-617.649 122.188,-620.656"/>
<polygon fill="midnightblue" stroke="midnightblue" points="62.1672,-599.507 51.5782,-599.86 60.0761,-606.187 62.1672,-599.507"/>
</g>
<!-- Node34 -->
<g id="node34" class="node"><title>Node34</title>
<g id="a_node34"><a xlink:href="class_i_text_entry_control.html" target="_top" xlink:title="A Text entry widget drawn by IGraphics. ">
<polygon fill="white" stroke="black" points="111,-582.5 111,-601.5 205,-601.5 205,-582.5 111,-582.5"/>
<text text-anchor="middle" x="158" y="-589.5" font-family="Helvetica,sans-Serif" font-size="10.00">ITextEntryControl</text>
</a>
</g>
</g>
<!-- Node1&#45;&gt;Node34 -->
<g id="edge33" class="edge"><title>Node1&#45;&gt;Node34</title>
<path fill="none" stroke="midnightblue" d="M62.1156,-592C77.0813,-592 94.7488,-592 110.756,-592"/>
<polygon fill="midnightblue" stroke="midnightblue" points="61.758,-588.5 51.758,-592 61.758,-595.5 61.758,-588.5"/>
</g>
<!-- Node35 -->
<g id="node35" class="node"><title>Node35</title>
<g id="a_node35"><a xlink:href="class_i_v_keyboard_control.html" target="_top" xlink:title="Vectorial keyboard control. ">
<polygon fill="white" stroke="black" points="108.5,-544.5 108.5,-563.5 207.5,-563.5 207.5,-544.5 108.5,-544.5"/>
<text text-anchor="middle" x="158" y="-551.5" font-family="Helvetica,sans-Serif" font-size="10.00">IVKeyboardControl</text>
</a>
</g>
</g>
<!-- Node1&#45;&gt;Node35 -->
<g id="edge34" class="edge"><title>Node1&#45;&gt;Node35</title>
<path fill="none" stroke="midnightblue" d="M61.3875,-581.07C70.056,-578.375 79.3554,-575.536 88,-573 98.8496,-569.817 110.705,-566.497 121.479,-563.538"/>
<polygon fill="midnightblue" stroke="midnightblue" points="60.0761,-577.813 51.5782,-584.14 62.1672,-584.493 60.0761,-577.813"/>
</g>
<!-- Node36 -->
<g id="node36" class="node"><title>Node36</title>
<g id="a_node36"><a xlink:href="class_i_v_scope_control.html" target="_top" xlink:title="Vectorial multichannel capable oscilloscope control. ">
<polygon fill="white" stroke="black" points="88,-495 88,-525 228,-525 228,-495 88,-495"/>
<text text-anchor="start" x="96" y="-513" font-family="Helvetica,sans-Serif" font-size="10.00">IVScopeControl&lt; MAXNC,</text>
<text text-anchor="middle" x="158" y="-502" font-family="Helvetica,sans-Serif" font-size="10.00"> MAXBUF, QUEUE_SIZE &gt;</text>
</a>
</g>
</g>
<!-- Node1&#45;&gt;Node36 -->
<g id="edge35" class="edge"><title>Node1&#45;&gt;Node36</title>
<path fill="none" stroke="midnightblue" d="M41.8963,-574.745C53.4259,-562.281 70.3581,-545.806 88,-535 94.0845,-531.273 100.809,-527.981 107.602,-525.111"/>
<polygon fill="midnightblue" stroke="midnightblue" points="39.2273,-572.479 35.1467,-582.256 44.434,-577.158 39.2273,-572.479"/>
</g>
<!-- Node37 -->
<g id="node37" class="node"><title>Node37</title>
<g id="a_node37"><a xlink:href="class_i_v_track_control_base.html" target="_top" xlink:title="A base class for mult&#45;strip/track controls, such as multi&#45;sliders, meters. ">
<polygon fill="white" stroke="red" points="105.5,-456.5 105.5,-475.5 210.5,-475.5 210.5,-456.5 105.5,-456.5"/>
<text text-anchor="middle" x="158" y="-463.5" font-family="Helvetica,sans-Serif" font-size="10.00">IVTrackControlBase</text>
</a>
</g>
</g>
<!-- Node1&#45;&gt;Node37 -->
<g id="edge36" class="edge"><title>Node1&#45;&gt;Node37</title>
<path fill="none" stroke="midnightblue" d="M33.029,-572.771C41.4927,-548.912 59.1749,-508.62 88,-486 93.5927,-481.611 100.116,-478.185 106.877,-475.511"/>
<polygon fill="midnightblue" stroke="midnightblue" points="29.6428,-571.861 29.782,-582.455 36.2796,-574.086 29.6428,-571.861"/>
</g>
<!-- Node38 -->
<g id="node38" class="node"><title>Node38</title>
<g id="a_node38"><a xlink:href="class_test_animation_control.html" target="_top" xlink:title="Control to test animation. ">
<polygon fill="white" stroke="black" points="102.5,-418.5 102.5,-437.5 213.5,-437.5 213.5,-418.5 102.5,-418.5"/>
<text text-anchor="middle" x="158" y="-425.5" font-family="Helvetica,sans-Serif" font-size="10.00">TestAnimationControl</text>
</a>
</g>
</g>
<!-- Node1&#45;&gt;Node38 -->
<g id="edge37" class="edge"><title>Node1&#45;&gt;Node38</title>
<path fill="none" stroke="midnightblue" d="M29.7695,-572.095C35.19,-540.795 50.1683,-480.224 88,-447 92.3879,-443.147 97.4904,-440.068 102.897,-437.609"/>
<polygon fill="midnightblue" stroke="midnightblue" points="26.2769,-571.774 28.1803,-582.197 33.1919,-572.862 26.2769,-571.774"/>
</g>
<!-- Node39 -->
<g id="node39" class="node"><title>Node39</title>
<g id="a_node39"><a xlink:href="class_test_color_control.html" target="_top" xlink:title="Control to colors. ">
<polygon fill="white" stroke="black" points="112.5,-380.5 112.5,-399.5 203.5,-399.5 203.5,-380.5 112.5,-380.5"/>
<text text-anchor="middle" x="158" y="-387.5" font-family="Helvetica,sans-Serif" font-size="10.00">TestColorControl</text>
</a>
</g>
</g>
<!-- Node1&#45;&gt;Node39 -->
<g id="edge38" class="edge"><title>Node1&#45;&gt;Node39</title>
<path fill="none" stroke="midnightblue" d="M27.7424,-572.305C30.2423,-534.929 41.0929,-453.483 88,-409 94.7618,-402.588 103.484,-398.302 112.437,-395.447"/>
<polygon fill="midnightblue" stroke="midnightblue" points="24.2416,-572.228 27.204,-582.4 31.2317,-572.6 24.2416,-572.228"/>
</g>
<!-- Node40 -->
<g id="node40" class="node"><title>Node40</title>
<g id="a_node40"><a xlink:href="class_test_cursor_control.html" target="_top" xlink:title="Control to test changing the platform cursor. ">
<polygon fill="white" stroke="black" points="109.5,-342.5 109.5,-361.5 206.5,-361.5 206.5,-342.5 109.5,-342.5"/>
<text text-anchor="middle" x="158" y="-349.5" font-family="Helvetica,sans-Serif" font-size="10.00">TestCursorControl</text>
</a>
</g>
</g>
<!-- Node1&#45;&gt;Node40 -->
<g id="edge39" class="edge"><title>Node1&#45;&gt;Node40</title>
<path fill="none" stroke="midnightblue" d="M26.3925,-572.192C26.2043,-529.244 32.038,-426.928 88,-371 93.8883,-365.115 101.421,-361.009 109.333,-358.154"/>
<polygon fill="midnightblue" stroke="midnightblue" points="22.8968,-572.486 26.5622,-582.427 29.8959,-572.37 22.8968,-572.486"/>
</g>
<!-- Node41 -->
<g id="node41" class="node"><title>Node41</title>
<g id="a_node41"><a xlink:href="class_test_draw_context_control.html" target="_top" xlink:title="Control to test obtaining a drawing API (NanoVG, LICE, Cairo, AGG etc) context and using that API wit...">
<polygon fill="white" stroke="black" points="95.5,-304.5 95.5,-323.5 220.5,-323.5 220.5,-304.5 95.5,-304.5"/>
<text text-anchor="middle" x="158" y="-311.5" font-family="Helvetica,sans-Serif" font-size="10.00">TestDrawContextControl</text>
</a>
</g>
</g>
<!-- Node1&#45;&gt;Node41 -->
<g id="edge40" class="edge"><title>Node1&#45;&gt;Node41</title>
<path fill="none" stroke="midnightblue" d="M29.0564,-572.265C35.1086,-517.902 54.5638,-367.711 88,-333 91.7066,-329.152 96.1148,-326.061 100.884,-323.581"/>
<polygon fill="midnightblue" stroke="midnightblue" points="25.5629,-572.016 27.9681,-582.335 32.5224,-572.769 25.5629,-572.016"/>
</g>
<!-- Node42 -->
<g id="node42" class="node"><title>Node42</title>
<g id="a_node42"><a xlink:href="class_test_drop_shadow_control.html" target="_top" xlink:title="Control to test layer drop shadows. ">
<polygon fill="white" stroke="black" points="96,-266.5 96,-285.5 220,-285.5 220,-266.5 96,-266.5"/>
<text text-anchor="middle" x="158" y="-273.5" font-family="Helvetica,sans-Serif" font-size="10.00">TestDropShadowControl</text>
</a>
</g>
</g>
<!-- Node1&#45;&gt;Node42 -->
<g id="edge41" class="edge"><title>Node1&#45;&gt;Node42</title>
<path fill="none" stroke="midnightblue" d="M28.4176,-572.176C33.0844,-512.428 49.899,-335.708 88,-295 91.566,-291.19 95.8192,-288.119 100.438,-285.646"/>
<polygon fill="midnightblue" stroke="midnightblue" points="24.9234,-571.968 27.6642,-582.202 31.9037,-572.493 24.9234,-571.968"/>
</g>
<!-- Node43 -->
<g id="node43" class="node"><title>Node43</title>
<g id="a_node43"><a xlink:href="class_test_font_control.html" target="_top" xlink:title="Control to test drawing text. ">
<polygon fill="white" stroke="black" points="114.5,-228.5 114.5,-247.5 201.5,-247.5 201.5,-228.5 114.5,-228.5"/>
<text text-anchor="middle" x="158" y="-235.5" font-family="Helvetica,sans-Serif" font-size="10.00">TestFontControl</text>
</a>
</g>
</g>
<!-- Node1&#45;&gt;Node43 -->
<g id="edge42" class="edge"><title>Node1&#45;&gt;Node43</title>
<path fill="none" stroke="midnightblue" d="M27.9095,-572.234C31.282,-507.572 45.1743,-303.798 88,-257 94.8783,-249.484 104.43,-244.833 114.236,-241.984"/>
<polygon fill="midnightblue" stroke="midnightblue" points="24.4094,-572.153 27.4118,-582.313 31.4008,-572.498 24.4094,-572.153"/>
</g>
<!-- Node44 -->
<g id="node44" class="node"><title>Node44</title>
<g id="a_node44"><a xlink:href="class_test_image_control.html" target="_top" xlink:title="Control to test drawing bitmaps. ">
<polygon fill="white" stroke="black" points="110.5,-190.5 110.5,-209.5 205.5,-209.5 205.5,-190.5 110.5,-190.5"/>
<text text-anchor="middle" x="158" y="-197.5" font-family="Helvetica,sans-Serif" font-size="10.00">TestImageControl</text>
</a>
</g>
</g>
<!-- Node1&#45;&gt;Node44 -->
<g id="edge43" class="edge"><title>Node1&#45;&gt;Node44</title>
<path fill="none" stroke="midnightblue" d="M27.5047,-572.281C29.678,-502.98 40.4279,-271.934 88,-219 93.8968,-212.439 101.83,-208.055 110.217,-205.147"/>
<polygon fill="midnightblue" stroke="midnightblue" points="24.0058,-572.196 27.2166,-582.293 31.0029,-572.397 24.0058,-572.196"/>
</g>
<!-- Node45 -->
<g id="node45" class="node"><title>Node45</title>
<g id="a_node45"><a xlink:href="class_test_keyboard_control.html" target="_top" xlink:title="Control to test keyboard input. ">
<polygon fill="white" stroke="black" points="103.5,-152.5 103.5,-171.5 212.5,-171.5 212.5,-152.5 103.5,-152.5"/>
<text text-anchor="middle" x="158" y="-159.5" font-family="Helvetica,sans-Serif" font-size="10.00">TestKeyboardControl</text>
</a>
</g>
</g>
<!-- Node1&#45;&gt;Node45 -->
<g id="edge44" class="edge"><title>Node1&#45;&gt;Node45</title>
<path fill="none" stroke="midnightblue" d="M27.1759,-572.224C28.2362,-498.391 35.6855,-240.082 88,-181 92.2008,-176.256 97.4663,-172.648 103.206,-169.911"/>
<polygon fill="midnightblue" stroke="midnightblue" points="23.6737,-572.39 27.0547,-582.431 30.6732,-572.474 23.6737,-572.39"/>
</g>
<!-- Node46 -->
<g id="node46" class="node"><title>Node46</title>
<g id="a_node46"><a xlink:href="class_test_shadow_gradient_control.html" target="_top" xlink:title="Control to test drawing shadows with gradients. ">
<polygon fill="white" stroke="black" points="88,-114.5 88,-133.5 228,-133.5 228,-114.5 88,-114.5"/>
<text text-anchor="middle" x="158" y="-121.5" font-family="Helvetica,sans-Serif" font-size="10.00">TestShadowGradientControl</text>
</a>
</g>
</g>
<!-- Node1&#45;&gt;Node46 -->
<g id="edge45" class="edge"><title>Node1&#45;&gt;Node46</title>
<path fill="none" stroke="midnightblue" d="M26.9,-571.935C26.9211,-493.427 30.9834,-208.197 88,-143 91.3536,-139.165 95.4028,-136.072 99.8388,-133.58"/>
<polygon fill="midnightblue" stroke="midnightblue" points="23.4008,-572.341 26.9221,-582.333 30.4007,-572.326 23.4008,-572.341"/>
</g>
<!-- Node47 -->
<g id="node47" class="node"><title>Node47</title>
<g id="a_node47"><a xlink:href="class_test_size_control.html" target="_top" xlink:title="Control to display the size of a region. ">
<polygon fill="white" stroke="black" points="114.5,-76.5 114.5,-95.5 201.5,-95.5 201.5,-76.5 114.5,-76.5"/>
<text text-anchor="middle" x="158" y="-83.5" font-family="Helvetica,sans-Serif" font-size="10.00">TestSizeControl</text>
</a>
</g>
</g>
<!-- Node1&#45;&gt;Node47 -->
<g id="edge46" class="edge"><title>Node1&#45;&gt;Node47</title>
<path fill="none" stroke="midnightblue" d="M26.6617,-571.852C25.6888,-489.103 26.2192,-176.392 88,-105 94.7484,-97.2018 104.374,-92.4629 114.302,-89.6195"/>
<polygon fill="midnightblue" stroke="midnightblue" points="23.1688,-572.386 26.8091,-582.336 30.1681,-572.287 23.1688,-572.386"/>
</g>
<!-- Node48 -->
<g id="node48" class="node"><title>Node48</title>
<g id="a_node48"><a xlink:href="class_test_s_v_g_control.html" target="_top" xlink:title="Control to test drawing SVGs. ">
<polygon fill="white" stroke="black" points="113.5,-38.5 113.5,-57.5 202.5,-57.5 202.5,-38.5 113.5,-38.5"/>
<text text-anchor="middle" x="158" y="-45.5" font-family="Helvetica,sans-Serif" font-size="10.00">TestSVGControl</text>
</a>
</g>
</g>
<!-- Node1&#45;&gt;Node48 -->
<g id="edge47" class="edge"><title>Node1&#45;&gt;Node48</title>
<path fill="none" stroke="midnightblue" d="M27.9962,-572.35C32.7641,-481.644 54.4174,-106.159 88,-67 94.4708,-59.4546 103.636,-54.7696 113.179,-51.8942"/>
<polygon fill="midnightblue" stroke="midnightblue" points="24.4989,-572.209 27.4775,-582.377 31.4895,-572.571 24.4989,-572.209"/>
</g>
<!-- Node49 -->
<g id="node49" class="node"><title>Node49</title>
<g id="a_node49"><a xlink:href="class_test_text_control.html" target="_top" xlink:title="Control to test drawing text. ">
<polygon fill="white" stroke="black" points="114.5,-0.5 114.5,-19.5 201.5,-19.5 201.5,-0.5 114.5,-0.5"/>
<text text-anchor="middle" x="158" y="-7.5" font-family="Helvetica,sans-Serif" font-size="10.00">TestTextControl</text>
</a>
</g>
</g>
<!-- Node1&#45;&gt;Node49 -->
<g id="edge48" class="edge"><title>Node1&#45;&gt;Node49</title>
<path fill="none" stroke="midnightblue" d="M27.8438,-572.134C32.0541,-477.048 52.0312,-71.272 88,-29 94.6831,-21.1457 104.286,-16.3872 114.212,-13.5427"/>
<polygon fill="midnightblue" stroke="midnightblue" points="24.3463,-572.001 27.4085,-582.144 31.3397,-572.306 24.3463,-572.001"/>
</g>
<!-- Node3 -->
<g id="node3" class="node"><title>Node3</title>
<g id="a_node3"><a xlink:href="class_i_b_switch_control.html" target="_top" xlink:title="A bitmap switch control. ">
<polygon fill="white" stroke="black" points="284,-1209.5 284,-1228.5 372,-1228.5 372,-1209.5 284,-1209.5"/>
<text text-anchor="middle" x="328" y="-1216.5" font-family="Helvetica,sans-Serif" font-size="10.00">IBSwitchControl</text>
</a>
</g>
</g>
<!-- Node2&#45;&gt;Node3 -->
<g id="edge2" class="edge"><title>Node2&#45;&gt;Node3</title>
<path fill="none" stroke="midnightblue" d="M209.455,-1205.71C233.166,-1208.39 261.144,-1211.55 283.854,-1214.12"/>
<polygon fill="midnightblue" stroke="midnightblue" points="209.57,-1202.2 199.24,-1204.55 208.783,-1209.15 209.57,-1202.2"/>
</g>
<!-- Node5 -->
<g id="node5" class="node"><title>Node5</title>
<g id="a_node5"><a xlink:href="class_i_b_button_control.html" target="_top" xlink:title="A bitmap button/momentary switch control. ">
<polygon fill="white" stroke="black" points="285,-1171.5 285,-1190.5 371,-1190.5 371,-1171.5 285,-1171.5"/>
<text text-anchor="middle" x="328" y="-1178.5" font-family="Helvetica,sans-Serif" font-size="10.00">IBButtonControl</text>
</a>
</g>
</g>
<!-- Node4&#45;&gt;Node5 -->
<g id="edge4" class="edge"><title>Node4&#45;&gt;Node5</title>
<path fill="none" stroke="midnightblue" d="M211.276,-1154.82C234.961,-1160.18 262.59,-1166.43 284.911,-1171.48"/>
<polygon fill="midnightblue" stroke="midnightblue" points="211.919,-1151.38 201.393,-1152.59 210.375,-1158.21 211.919,-1151.38"/>
</g>
<!-- Node6 -->
<g id="node6" class="node"><title>Node6</title>
<g id="a_node6"><a xlink:href="class_i_v_button_control.html" target="_top" xlink:title="A vector button/momentary switch control. ">
<polygon fill="white" stroke="black" points="285,-1133.5 285,-1152.5 371,-1152.5 371,-1133.5 285,-1133.5"/>
<text text-anchor="middle" x="328" y="-1140.5" font-family="Helvetica,sans-Serif" font-size="10.00">IVButtonControl</text>
</a>
</g>
</g>
<!-- Node4&#45;&gt;Node6 -->
<g id="edge5" class="edge"><title>Node4&#45;&gt;Node6</title>
<path fill="none" stroke="midnightblue" d="M219.498,-1143C241.153,-1143 265.073,-1143 284.842,-1143"/>
<polygon fill="midnightblue" stroke="midnightblue" points="219.406,-1139.5 209.406,-1143 219.406,-1146.5 219.406,-1139.5"/>
</g>
<!-- Node10 -->
<g id="node10" class="node"><title>Node10</title>
<g id="a_node10"><a xlink:href="class_test_dir_browse_control.html" target="_top" xlink:title="Control to test IDirBrowseControlBase. ">
<polygon fill="white" stroke="black" points="271.5,-1095.5 271.5,-1114.5 384.5,-1114.5 384.5,-1095.5 271.5,-1095.5"/>
<text text-anchor="middle" x="328" y="-1102.5" font-family="Helvetica,sans-Serif" font-size="10.00">TestDirBrowseControl</text>
</a>
</g>
</g>
<!-- Node9&#45;&gt;Node10 -->
<g id="edge9" class="edge"><title>Node9&#45;&gt;Node10</title>
<path fill="none" stroke="midnightblue" d="M219.997,-1023.94C222.799,-1025.45 225.486,-1027.14 228,-1029 252.067,-1046.85 240.151,-1067.86 264,-1086 269.092,-1089.87 274.971,-1092.96 281.049,-1095.42"/>
<polygon fill="midnightblue" stroke="midnightblue" points="221.273,-1020.67 210.729,-1019.63 218.325,-1027.02 221.273,-1020.67"/>
</g>
<!-- Node14 -->
<g id="node14" class="node"><title>Node14</title>
<g id="a_node14"><a xlink:href="class_i_b_knob_control.html" target="_top" xlink:title="A bitmap knob/dial control that draws a frame from a stacked bitmap. ">
<polygon fill="white" stroke="red" points="288,-1057.5 288,-1076.5 368,-1076.5 368,-1057.5 288,-1057.5"/>
<text text-anchor="middle" x="328" y="-1064.5" font-family="Helvetica,sans-Serif" font-size="10.00">IBKnobControl</text>
</a>
</g>
</g>
<!-- Node13&#45;&gt;Node14 -->
<g id="edge13" class="edge"><title>Node13&#45;&gt;Node14</title>
<path fill="none" stroke="midnightblue" d="M215.859,-906.165C220.321,-908.539 224.46,-911.445 228,-915 271.207,-958.396 221.321,-1004.08 264,-1048 270.449,-1054.64 279.124,-1058.97 287.971,-1061.81"/>
<polygon fill="midnightblue" stroke="midnightblue" points="216.901,-902.801 206.336,-902.003 214.098,-909.215 216.901,-902.801"/>
</g>
<!-- Node15 -->
<g id="node15" class="node"><title>Node15</title>
<g id="a_node15"><a xlink:href="class_i_s_v_g_knob.html" target="_top" xlink:title="A vector knob/dial control which rotates an SVG image. ">
<polygon fill="white" stroke="black" points="296.5,-1019.5 296.5,-1038.5 359.5,-1038.5 359.5,-1019.5 296.5,-1019.5"/>
<text text-anchor="middle" x="328" y="-1026.5" font-family="Helvetica,sans-Serif" font-size="10.00">ISVGKnob</text>
</a>
</g>
</g>
<!-- Node13&#45;&gt;Node15 -->
<g id="edge14" class="edge"><title>Node13&#45;&gt;Node15</title>
<path fill="none" stroke="midnightblue" d="M215.698,-906.644C220.16,-908.92 224.345,-911.672 228,-915 261.385,-945.4 230.985,-979.198 264,-1010 272.771,-1018.18 284.945,-1022.85 296.256,-1025.51"/>
<polygon fill="midnightblue" stroke="midnightblue" points="216.802,-903.31 206.23,-902.612 214.059,-909.75 216.802,-903.31"/>
</g>
<!-- Node16 -->
<g id="node16" class="node"><title>Node16</title>
<g id="a_node16"><a xlink:href="class_i_v_knob_control.html" target="_top" xlink:title="A vector knob control drawn using graphics primitves. ">
<polygon fill="white" stroke="black" points="288,-981.5 288,-1000.5 368,-1000.5 368,-981.5 288,-981.5"/>
<text text-anchor="middle" x="328" y="-988.5" font-family="Helvetica,sans-Serif" font-size="10.00">IVKnobControl</text>
</a>
</g>
</g>
<!-- Node13&#45;&gt;Node16 -->
<g id="edge15" class="edge"><title>Node13&#45;&gt;Node16</title>
<path fill="none" stroke="midnightblue" d="M215.434,-907.655C219.89,-909.717 224.148,-912.144 228,-915 252.067,-932.848 240.151,-953.862 264,-972 271.002,-977.325 279.491,-981.165 287.94,-983.933"/>
<polygon fill="midnightblue" stroke="midnightblue" points="216.665,-904.377 206.081,-903.914 214.066,-910.877 216.665,-904.377"/>
</g>
<!-- Node17 -->
<g id="node17" class="node"><title>Node17</title>
<g id="a_node17"><a xlink:href="class_test_arc_control.html" target="_top" xlink:title="Control to test drawing arcs. ">
<polygon fill="white" stroke="black" points="286.5,-943.5 286.5,-962.5 369.5,-962.5 369.5,-943.5 286.5,-943.5"/>
<text text-anchor="middle" x="328" y="-950.5" font-family="Helvetica,sans-Serif" font-size="10.00">TestArcControl</text>
</a>
</g>
</g>
<!-- Node13&#45;&gt;Node17 -->
<g id="edge16" class="edge"><title>Node13&#45;&gt;Node17</title>
<path fill="none" stroke="midnightblue" d="M209.23,-908.452C215.618,-910.437 222.011,-912.628 228,-915 244.82,-921.663 247.262,-927.134 264,-934 272.561,-937.512 282.012,-940.703 290.932,-943.426"/>
<polygon fill="midnightblue" stroke="midnightblue" points="209.837,-904.981 199.255,-905.504 207.854,-911.694 209.837,-904.981"/>
</g>
<!-- Node18 -->
<g id="node18" class="node"><title>Node18</title>
<g id="a_node18"><a xlink:href="class_test_blend_control.html" target="_top" xlink:title="Control to test blend methods. ">
<polygon fill="white" stroke="black" points="282,-905.5 282,-924.5 374,-924.5 374,-905.5 282,-905.5"/>
<text text-anchor="middle" x="328" y="-912.5" font-family="Helvetica,sans-Serif" font-size="10.00">TestBlendControl</text>
</a>
</g>
</g>
<!-- Node13&#45;&gt;Node18 -->
<g id="edge17" class="edge"><title>Node13&#45;&gt;Node18</title>
<path fill="none" stroke="midnightblue" d="M216.204,-902.469C237.631,-904.893 261.657,-907.61 281.844,-909.893"/>
<polygon fill="midnightblue" stroke="midnightblue" points="216.574,-898.989 206.244,-901.343 215.788,-905.945 216.574,-898.989"/>
</g>
<!-- Node19 -->
<g id="node19" class="node"><title>Node19</title>
<g id="a_node19"><a xlink:href="class_test_gradient_control.html" target="_top" xlink:title="Control to test drawing gradients with path based drawing backends. ">
<polygon fill="white" stroke="black" points="276,-867.5 276,-886.5 380,-886.5 380,-867.5 276,-867.5"/>
<text text-anchor="middle" x="328" y="-874.5" font-family="Helvetica,sans-Serif" font-size="10.00">TestGradientControl</text>
</a>
</g>
</g>
<!-- Node13&#45;&gt;Node19 -->
<g id="edge18" class="edge"><title>Node13&#45;&gt;Node19</title>
<path fill="none" stroke="midnightblue" d="M216.438,-889.504C235.77,-887.318 257.194,-884.895 275.996,-882.768"/>
<polygon fill="midnightblue" stroke="midnightblue" points="215.788,-886.055 206.244,-890.657 216.574,-893.011 215.788,-886.055"/>
</g>
<!-- Node20 -->
<g id="node20" class="node"><title>Node20</title>
<g id="a_node20"><a xlink:href="class_test_layer_control.html" target="_top" xlink:title="Control to test IGraphics layers. ">
<polygon fill="white" stroke="black" points="282,-829.5 282,-848.5 374,-848.5 374,-829.5 282,-829.5"/>
<text text-anchor="middle" x="328" y="-836.5" font-family="Helvetica,sans-Serif" font-size="10.00">TestLayerControl</text>
</a>
</g>
</g>
<!-- Node13&#45;&gt;Node20 -->
<g id="edge19" class="edge"><title>Node13&#45;&gt;Node20</title>
<path fill="none" stroke="midnightblue" d="M209.23,-883.548C215.618,-881.563 222.011,-879.372 228,-877 244.82,-870.337 247.262,-864.866 264,-858 272.561,-854.488 282.012,-851.297 290.932,-848.574"/>
<polygon fill="midnightblue" stroke="midnightblue" points="207.854,-880.306 199.255,-886.496 209.837,-887.019 207.854,-880.306"/>
</g>
<!-- Node21 -->
<g id="node21" class="node"><title>Node21</title>
<g id="a_node21"><a xlink:href="class_test_m_p_s_control.html" target="_top" xlink:title="Control to test IGraphicsNanoVG with Metal Performance Shaders. ">
<polygon fill="white" stroke="black" points="283.5,-791.5 283.5,-810.5 372.5,-810.5 372.5,-791.5 283.5,-791.5"/>
<text text-anchor="middle" x="328" y="-798.5" font-family="Helvetica,sans-Serif" font-size="10.00">TestMPSControl</text>
</a>
</g>
</g>
<!-- Node13&#45;&gt;Node21 -->
<g id="edge20" class="edge"><title>Node13&#45;&gt;Node21</title>
<path fill="none" stroke="midnightblue" d="M215.434,-884.345C219.89,-882.283 224.148,-879.856 228,-877 252.067,-859.152 240.151,-838.138 264,-820 269.729,-815.643 276.453,-812.28 283.336,-809.685"/>
<polygon fill="midnightblue" stroke="midnightblue" points="214.066,-881.123 206.081,-888.086 216.665,-887.623 214.066,-881.123"/>
</g>
<!-- Node22 -->
<g id="node22" class="node"><title>Node22</title>
<g id="a_node22"><a xlink:href="class_test_multi_path_control.html" target="_top" xlink:title="Control to test drawing paths in path&#45;based drawing backends. ">
<polygon fill="white" stroke="black" points="273.5,-753.5 273.5,-772.5 382.5,-772.5 382.5,-753.5 273.5,-753.5"/>
<text text-anchor="middle" x="328" y="-760.5" font-family="Helvetica,sans-Serif" font-size="10.00">TestMultiPathControl</text>
</a>
</g>
</g>
<!-- Node13&#45;&gt;Node22 -->
<g id="edge21" class="edge"><title>Node13&#45;&gt;Node22</title>
<path fill="none" stroke="midnightblue" d="M215.698,-885.356C220.16,-883.08 224.345,-880.328 228,-877 261.385,-846.6 230.985,-812.802 264,-782 268.177,-778.103 273.125,-775.004 278.384,-772.539"/>
<polygon fill="midnightblue" stroke="midnightblue" points="214.059,-882.25 206.23,-889.388 216.802,-888.69 214.059,-882.25"/>
</g>
<!-- Node23 -->
<g id="node23" class="node"><title>Node23</title>
<g id="a_node23"><a xlink:href="class_test_poly_control.html" target="_top" xlink:title="Control to test drawing polygons. ">
<polygon fill="white" stroke="black" points="284.5,-715.5 284.5,-734.5 371.5,-734.5 371.5,-715.5 284.5,-715.5"/>
<text text-anchor="middle" x="328" y="-722.5" font-family="Helvetica,sans-Serif" font-size="10.00">TestPolyControl</text>
</a>
</g>
</g>
<!-- Node13&#45;&gt;Node23 -->
<g id="edge22" class="edge"><title>Node13&#45;&gt;Node23</title>
<path fill="none" stroke="midnightblue" d="M215.859,-885.835C220.321,-883.461 224.46,-880.555 228,-877 271.207,-833.604 221.321,-787.916 264,-744 269.573,-738.265 276.809,-734.246 284.381,-731.433"/>
<polygon fill="midnightblue" stroke="midnightblue" points="214.098,-882.785 206.336,-889.997 216.901,-889.199 214.098,-882.785"/>
</g>
<!-- Node24 -->
<g id="node24" class="node"><title>Node24</title>
<g id="a_node24"><a xlink:href="class_test_rotating_mask_control.html" target="_top" xlink:title="Control to test rotating mask bitmaps. ">
<polygon fill="white" stroke="black" points="264,-677.5 264,-696.5 392,-696.5 392,-677.5 264,-677.5"/>
<text text-anchor="middle" x="328" y="-684.5" font-family="Helvetica,sans-Serif" font-size="10.00">TestRotatingMaskControl</text>
</a>
</g>
</g>
<!-- Node13&#45;&gt;Node24 -->
<g id="edge23" class="edge"><title>Node13&#45;&gt;Node24</title>
<path fill="none" stroke="midnightblue" d="M215.527,-886.343C220.156,-883.873 224.421,-880.805 228,-877 281.212,-820.427 211.477,-763.213 264,-706 267.554,-702.129 271.865,-699.035 276.546,-696.565"/>
<polygon fill="midnightblue" stroke="midnightblue" points="214.023,-883.181 206.262,-890.393 216.826,-889.595 214.023,-883.181"/>
</g>
<!-- Node29 -->
<g id="node29" class="node"><title>Node29</title>
<g id="a_node29"><a xlink:href="class_i_b_slider_control.html" target="_top" xlink:title="A bitmap slider/fader control. ">
<polygon fill="white" stroke="black" points="286.5,-639.5 286.5,-658.5 369.5,-658.5 369.5,-639.5 286.5,-639.5"/>
<text text-anchor="middle" x="328" y="-646.5" font-family="Helvetica,sans-Serif" font-size="10.00">IBSliderControl</text>
</a>
</g>
</g>
<!-- Node28&#45;&gt;Node29 -->
<g id="edge28" class="edge"><title>Node28&#45;&gt;Node29</title>
<path fill="none" stroke="midnightblue" d="M216.717,-731.739C220.707,-729.812 224.519,-727.581 228,-725 252.067,-707.152 240.151,-686.138 264,-668 270.547,-663.021 278.395,-659.34 286.294,-656.62"/>
<polygon fill="midnightblue" stroke="midnightblue" points="215.051,-728.641 207.158,-735.709 217.736,-735.106 215.051,-728.641"/>
</g>
<!-- Node30 -->
<g id="node30" class="node"><title>Node30</title>
<g id="a_node30"><a xlink:href="class_i_v_slider_control.html" target="_top" xlink:title="A vector slider control. ">
<polygon fill="white" stroke="black" points="286.5,-601.5 286.5,-620.5 369.5,-620.5 369.5,-601.5 286.5,-601.5"/>
<text text-anchor="middle" x="328" y="-608.5" font-family="Helvetica,sans-Serif" font-size="10.00">IVSliderControl</text>
</a>
</g>
</g>
<!-- Node28&#45;&gt;Node30 -->
<g id="edge29" class="edge"><title>Node28&#45;&gt;Node30</title>
<path fill="none" stroke="midnightblue" d="M216.63,-732.872C220.743,-730.693 224.601,-728.095 228,-725 261.385,-694.6 230.985,-660.802 264,-630 270.265,-624.155 278.266,-620.104 286.449,-617.298"/>
<polygon fill="midnightblue" stroke="midnightblue" points="215.024,-729.755 207.297,-737.004 217.858,-736.155 215.024,-729.755"/>
</g>
</g>
</svg>
