<?xml version="1.0" encoding="UTF-8" standalone="no"?>
<!DOCTYPE svg PUBLIC "-//W3C//DTD SVG 1.1//EN"
 "http://www.w3.org/Graphics/SVG/1.1/DTD/svg11.dtd">
<!-- Generated by graphviz version 2.36.0 (20140111.2315)
 -->
<!-- Title: Graphical Class Hierarchy Pages: 1 -->
<svg width="420pt" height="104pt"
 viewBox="0.00 0.00 420.00 104.00" xmlns="http://www.w3.org/2000/svg" xmlns:xlink="http://www.w3.org/1999/xlink">
<g id="graph0" class="graph" transform="scale(1 1) rotate(0) translate(4 100)">
<title>Graphical Class Hierarchy</title>
<polygon fill="white" stroke="none" points="-4,4 -4,-100 416,-100 416,4 -4,4"/>
<!-- Node1 -->
<g id="node1" class="node"><title>Node1</title>
<polygon fill="white" stroke="#bfbfbf" points="0.5,-38.5 0.5,-57.5 73.5,-57.5 73.5,-38.5 0.5,-38.5"/>
<text text-anchor="middle" x="37" y="-45.5" font-family="Helvetica,sans-Serif" font-size="10.00">PlatformFont</text>
</g>
<!-- Node2 -->
<g id="node2" class="node"><title>Node2</title>
<g id="a_node2"><a xlink:href="class_i_graphics_mac_1_1_mac_font.html" target="_top" xlink:title="IGraphicsMac::MacFont">
<polygon fill="white" stroke="black" points="112,-76.5 112,-95.5 234,-95.5 234,-76.5 112,-76.5"/>
<text text-anchor="middle" x="173" y="-83.5" font-family="Helvetica,sans-Serif" font-size="10.00">IGraphicsMac::MacFont</text>
</a>
</g>
</g>
<!-- Node1&#45;&gt;Node2 -->
<g id="edge1" class="edge"><title>Node1&#45;&gt;Node2</title>
<path fill="none" stroke="midnightblue" d="M81.4383,-60.3183C99.8491,-65.5393 120.98,-71.5316 138.197,-76.4141"/>
<polygon fill="midnightblue" stroke="midnightblue" points="82.3894,-56.9501 71.8139,-57.589 80.4796,-63.6845 82.3894,-56.9501"/>
</g>
<!-- Node3 -->
<g id="node3" class="node"><title>Node3</title>
<g id="a_node3"><a xlink:href="class_i_graphics_web_1_1_web_font.html" target="_top" xlink:title="IGraphicsWeb::WebFont">
<polygon fill="white" stroke="black" points="110.5,-38.5 110.5,-57.5 235.5,-57.5 235.5,-38.5 110.5,-38.5"/>
<text text-anchor="middle" x="173" y="-45.5" font-family="Helvetica,sans-Serif" font-size="10.00">IGraphicsWeb::WebFont</text>
</a>
</g>
</g>
<!-- Node1&#45;&gt;Node3 -->
<g id="edge2" class="edge"><title>Node1&#45;&gt;Node3</title>
<path fill="none" stroke="midnightblue" d="M83.7191,-48C92.2964,-48 101.393,-48 110.361,-48"/>
<polygon fill="midnightblue" stroke="midnightblue" points="83.5578,-44.5001 73.5577,-48 83.5577,-51.5001 83.5578,-44.5001"/>
</g>
<!-- Node5 -->
<g id="node5" class="node"><title>Node5</title>
<g id="a_node5"><a xlink:href="class_i_graphics_win_1_1_win_font.html" target="_top" xlink:title="IGraphicsWin::WinFont">
<polygon fill="white" stroke="black" points="113.5,-0.5 113.5,-19.5 232.5,-19.5 232.5,-0.5 113.5,-0.5"/>
<text text-anchor="middle" x="173" y="-7.5" font-family="Helvetica,sans-Serif" font-size="10.00">IGraphicsWin::WinFont</text>
</a>
</g>
</g>
<!-- Node1&#45;&gt;Node5 -->
<g id="edge4" class="edge"><title>Node1&#45;&gt;Node5</title>
<path fill="none" stroke="midnightblue" d="M81.4383,-35.6817C99.8491,-30.4607 120.98,-24.4684 138.197,-19.5859"/>
<polygon fill="midnightblue" stroke="midnightblue" points="80.4796,-32.3155 71.8139,-38.411 82.3894,-39.0499 80.4796,-32.3155"/>
</g>
<!-- Node4 -->
<g id="node4" class="node"><title>Node4</title>
<g id="a_node4"><a xlink:href="class_i_graphics_web_1_1_web_file_font.html" target="_top" xlink:title="IGraphicsWeb::WebFileFont">
<polygon fill="white" stroke="black" points="272,-38.5 272,-57.5 412,-57.5 412,-38.5 272,-38.5"/>
<text text-anchor="middle" x="342" y="-45.5" font-family="Helvetica,sans-Serif" font-size="10.00">IGraphicsWeb::WebFileFont</text>
</a>
</g>
</g>
<!-- Node3&#45;&gt;Node4 -->
<g id="edge3" class="edge"><title>Node3&#45;&gt;Node4</title>
<path fill="none" stroke="midnightblue" d="M245.792,-48C254.466,-48 263.313,-48 271.947,-48"/>
<polygon fill="midnightblue" stroke="midnightblue" points="245.71,-44.5001 235.71,-48 245.71,-51.5001 245.71,-44.5001"/>
</g>
</g>
</svg>
